<svg width="61" height="38" viewBox="0 0 61 38" fill="none" xmlns="http://www.w3.org/2000/svg">
<g clip-path="url(#clip0_3615_52800)">
<path d="M14.7961 13.2937C14.7766 13.892 14.8553 14.4893 15.0298 15.0634C15.2098 15.556 15.432 16.0321 15.6939 16.4865C15.7832 16.6229 15.8342 16.7794 15.8415 16.941C15.8278 17.0631 15.7848 17.18 15.7163 17.282C15.6478 17.384 15.5557 17.468 15.4478 17.5268L14.2181 18.364C14.0579 18.473 13.8705 18.5351 13.6769 18.5433C13.5632 18.5396 13.4514 18.5134 13.348 18.4662C13.2446 18.419 13.1515 18.3518 13.0743 18.2683C12.7895 17.9946 12.5415 17.6851 12.3365 17.3475C12.1314 17.0127 11.9223 16.6141 11.7091 16.1517C10.2494 17.9232 8.02932 18.9385 5.69539 18.9021C4.19283 18.982 2.72048 18.469 1.61237 17.479C0.584942 16.4629 0.0410205 15.0757 0.111569 13.6523C0.0456977 12.1024 0.705965 10.607 1.90723 9.58641C3.33125 8.49604 5.11503 7.94763 6.92492 8.0439C7.64915 8.04589 8.37239 8.09779 9.08949 8.19923C9.8437 8.30291 10.6267 8.44634 11.4384 8.62992V7.17082C11.5579 6.02763 11.2087 4.88464 10.4669 3.99012C9.51785 3.28035 8.32516 2.9508 7.13403 3.06929C6.3926 3.0729 5.65401 3.16117 4.93261 3.33238C4.18342 3.50648 3.44772 3.73424 2.7312 4.01389C2.49987 4.11718 2.26153 4.20527 2.01793 4.27699H1.69832C1.41125 4.27699 1.26762 4.06983 1.26762 3.65531V2.71051C1.25014 2.46992 1.30137 2.22932 1.41534 2.01672C1.57092 1.83211 1.76949 1.68856 1.99357 1.59869C2.81827 1.21472 3.67934 0.914272 4.56389 0.701836C5.6055 0.441902 6.67554 0.313319 7.74908 0.319083C9.68136 0.152457 11.6033 0.732433 13.099 1.9335C14.3278 3.27002 14.9409 5.03704 14.7961 6.82432V13.2937ZM6.49461 16.3191C7.21588 16.3089 7.93052 16.1836 8.61008 15.9484C9.35488 15.6989 10.0208 15.2575 10.5408 14.6688C10.857 14.3268 11.0924 13.9181 11.2295 13.473C11.3711 12.9102 11.4373 12.3312 11.4264 11.751V10.9142C10.8055 10.7695 10.1774 10.6577 9.54474 10.5793C8.90826 10.5002 8.2675 10.4602 7.62611 10.4597C6.54918 10.3812 5.47693 10.6639 4.58845 11.2609C3.93851 11.8184 3.58168 12.6311 3.61695 13.4732C3.5581 14.2453 3.82938 15.0069 4.36726 15.5779C4.94704 16.0897 5.71235 16.3565 6.49461 16.3193V16.3191ZM22.913 18.4716C22.6366 18.4964 22.3598 18.4291 22.1257 18.2802C21.9091 18.069 21.7595 17.7987 21.6954 17.503L16.9114 2.12469C16.8187 1.86585 16.7568 1.59701 16.727 1.32371C16.7167 1.25666 16.7226 1.18811 16.7443 1.12384C16.766 1.05957 16.8029 1.00145 16.8517 0.954406C16.9015 0.90647 16.9615 0.870608 17.0273 0.849589C17.0931 0.828571 17.1629 0.822959 17.2312 0.833188H19.2356C19.5159 0.805587 19.7975 0.872984 20.035 1.02456C20.2376 1.24258 20.3777 1.5111 20.4407 1.80196L23.872 14.9559L27.0574 1.80196C27.1075 1.51006 27.2496 1.24186 27.4632 1.03665C27.7111 0.888393 27.9992 0.821472 28.2871 0.845271H29.9351C30.223 0.821472 30.5111 0.888393 30.7591 1.03665C30.9705 1.24661 31.1085 1.51917 31.1527 1.81385L34.3625 15.1352L37.9045 1.81385C37.9705 1.52151 38.1151 1.25273 38.3225 1.03645C38.56 0.884941 38.8416 0.817612 39.1219 0.845271H41.016C41.0843 0.835042 41.1541 0.840654 41.2199 0.861672C41.2856 0.88269 41.3457 0.918553 41.3955 0.966489C41.4948 1.06315 41.5412 1.20035 41.5202 1.3354C41.5303 1.43889 41.5303 1.54296 41.5202 1.64644C41.4809 1.81269 41.4316 1.97643 41.3727 2.13677L36.4532 17.5151C36.3891 17.8107 36.2394 18.081 36.0229 18.2923C35.7887 18.4412 35.5119 18.5084 35.2355 18.4835H33.4401C33.1502 18.5133 32.8589 18.4415 32.6161 18.2802C32.4061 18.0597 32.2687 17.7802 32.2224 17.4792L29.0375 4.67182L25.8891 17.4671C25.8428 17.7681 25.7054 18.0476 25.4954 18.2681C25.2527 18.4294 24.9614 18.5014 24.6715 18.4716H22.9128H22.913ZM49.1822 18.9978C48.1232 18.9995 47.0672 18.8831 46.0339 18.6509C45.2144 18.4908 44.4202 18.2214 43.6725 17.8499C43.2139 17.6609 42.9177 17.2218 42.9222 16.7375V15.7331C42.9222 15.3185 43.0781 15.1114 43.3897 15.1114C43.5203 15.1133 43.6493 15.1375 43.7709 15.1831L44.2873 15.3864C45.0107 15.6974 45.7653 15.9299 46.5382 16.08C47.3474 16.2417 48.1716 16.3216 48.9977 16.3191C50.0355 16.3795 51.0697 16.1519 51.9862 15.6613C52.6642 15.2696 53.0694 14.5505 53.0439 13.7838C53.0503 13.5272 53.0046 13.272 52.9094 13.0336C52.8143 12.7951 52.6717 12.5785 52.4904 12.3968C51.8657 11.889 51.1341 11.5293 50.3506 11.3445L47.3866 10.4357C46.1385 10.0986 45.0269 9.39738 44.2014 8.42666C43.5421 7.60249 43.1831 6.5889 43.1806 5.54471C43.1639 4.77111 43.3551 4.0072 43.7341 3.33258C44.1043 2.6918 44.6025 2.1341 45.1976 1.69419C45.8275 1.22925 46.5356 0.880942 47.2884 0.665782C48.1249 0.431268 48.99 0.314513 49.8587 0.318888C50.3191 0.318578 50.7791 0.346564 51.2361 0.402688C51.7035 0.45862 52.1462 0.534235 52.5643 0.629923C52.9575 0.718926 53.3472 0.822612 53.7326 0.940764C54.0291 1.03118 54.3171 1.14725 54.5934 1.28766C54.8253 1.40886 55.0303 1.57563 55.1962 1.77799C55.3258 1.97214 55.3904 2.20247 55.3805 2.43572V3.38032C55.3805 3.79484 55.2246 4.00201 54.9132 4.00201C54.6382 3.97235 54.3712 3.8913 54.1261 3.76308C52.8814 3.23813 51.5413 2.97746 50.1906 2.99757C49.2515 2.94964 48.3158 3.14314 47.4727 3.55962C46.8314 3.92405 46.4554 4.60849 46.5012 5.32956C46.4888 5.8614 46.7076 6.37375 47.1038 6.74052C47.7705 7.25791 48.5366 7.6324 49.3543 7.84064L52.2567 8.68975C53.4859 9.0004 54.5883 9.66787 55.4176 10.6031C56.0677 11.4236 56.4066 12.4376 56.3768 13.473C56.3872 14.2749 56.2014 15.0673 55.8356 15.781C55.4745 16.469 54.9664 17.0692 54.3475 17.5389C53.666 18.0497 52.8941 18.427 52.0724 18.6509C51.13 18.9012 50.1571 19.0179 49.1822 18.9978Z" fill="#252F3E"/>
<path d="M55.8789 28.6888C49.1281 34.575 39.329 37.7076 30.9614 37.7076C19.672 37.7953 8.76314 32.8944 0.379416 23.9679C-0.25006 23.2977 0.30536 22.3798 1.07048 22.8898C10.3709 29.1705 20.9011 32.4707 31.6157 32.4625C39.6172 32.4116 47.5315 30.4953 54.9039 26.8237C56.0393 26.2554 57.0021 27.7124 55.8789 28.6888Z" fill="#FF9900"/>
<path d="M57.1045 25.7419C56.2628 24.6482 51.5375 25.2315 49.4214 25.4866C48.7841 25.5597 48.676 25.0006 49.253 24.5874C53.0164 21.9138 59.1966 22.6795 59.906 23.5787C60.6154 24.4781 59.7136 30.7368 56.1907 33.7263C55.6497 34.1882 55.1325 33.9452 55.3732 33.3375C56.1667 31.3201 57.9462 26.8358 57.1045 25.7419Z" fill="#FF9900"/>
<path d="M14.7961 13.2937C14.7766 13.892 14.8553 14.4893 15.0298 15.0634C15.2098 15.556 15.432 16.0321 15.6939 16.4865C15.7832 16.6229 15.8342 16.7794 15.8415 16.941C15.8278 17.0631 15.7848 17.18 15.7163 17.282C15.6478 17.384 15.5557 17.468 15.4478 17.5268L14.2181 18.364C14.0579 18.473 13.8705 18.5351 13.6769 18.5433C13.5632 18.5396 13.4514 18.5134 13.348 18.4662C13.2446 18.419 13.1515 18.3518 13.0743 18.2683C12.7895 17.9946 12.5415 17.6851 12.3365 17.3475C12.1314 17.0127 11.9223 16.6141 11.7091 16.1517C10.2494 17.9232 8.02932 18.9385 5.69539 18.9021C4.19283 18.982 2.72048 18.469 1.61237 17.479C0.584942 16.4629 0.0410205 15.0757 0.111569 13.6523C0.0456977 12.1024 0.705965 10.607 1.90723 9.58641C3.33125 8.49604 5.11503 7.94763 6.92492 8.0439C7.64915 8.04589 8.37239 8.09779 9.08949 8.19923C9.8437 8.30291 10.6267 8.44634 11.4384 8.62992V7.17082C11.5579 6.02763 11.2087 4.88464 10.4669 3.99012C9.51785 3.28035 8.32516 2.9508 7.13403 3.06929C6.3926 3.0729 5.65401 3.16117 4.93261 3.33238C4.18342 3.50648 3.44772 3.73424 2.7312 4.01389C2.49987 4.11718 2.26153 4.20527 2.01793 4.27699H1.69832C1.41125 4.27699 1.26762 4.06983 1.26762 3.65531V2.71051C1.25014 2.46992 1.30137 2.22932 1.41534 2.01672C1.57092 1.83211 1.76949 1.68856 1.99357 1.59869C2.81827 1.21472 3.67934 0.914272 4.56389 0.701836C5.6055 0.441902 6.67554 0.313319 7.74908 0.319083C9.68136 0.152457 11.6033 0.732433 13.099 1.9335C14.3278 3.27002 14.9409 5.03704 14.7961 6.82432V13.2937ZM6.49461 16.3191C7.21588 16.3089 7.93052 16.1836 8.61008 15.9484C9.35488 15.6989 10.0208 15.2575 10.5408 14.6688C10.857 14.3268 11.0924 13.9181 11.2295 13.473C11.3711 12.9102 11.4373 12.3312 11.4264 11.751V10.9142C10.8055 10.7695 10.1774 10.6577 9.54474 10.5793C8.90826 10.5002 8.2675 10.4602 7.62611 10.4597C6.54918 10.3812 5.47693 10.6639 4.58845 11.2609C3.93851 11.8184 3.58168 12.6311 3.61695 13.4732C3.5581 14.2453 3.82938 15.0069 4.36726 15.5779C4.94704 16.0897 5.71235 16.3565 6.49461 16.3193V16.3191ZM22.913 18.4716C22.6366 18.4964 22.3598 18.4291 22.1257 18.2802C21.9091 18.069 21.7595 17.7987 21.6954 17.503L16.9114 2.12469C16.8187 1.86585 16.7568 1.59701 16.727 1.32371C16.7167 1.25666 16.7226 1.18811 16.7443 1.12384C16.766 1.05957 16.8029 1.00145 16.8517 0.954406C16.9015 0.90647 16.9615 0.870608 17.0273 0.849589C17.0931 0.828571 17.1629 0.822959 17.2312 0.833188H19.2356C19.5159 0.805587 19.7975 0.872984 20.035 1.02456C20.2376 1.24258 20.3777 1.5111 20.4407 1.80196L23.872 14.9559L27.0574 1.80196C27.1075 1.51006 27.2496 1.24186 27.4632 1.03665C27.7111 0.888393 27.9992 0.821472 28.2871 0.845271H29.9351C30.223 0.821472 30.5111 0.888393 30.7591 1.03665C30.9705 1.24661 31.1085 1.51917 31.1527 1.81385L34.3625 15.1352L37.9045 1.81385C37.9705 1.52151 38.1151 1.25273 38.3225 1.03645C38.56 0.884941 38.8416 0.817612 39.1219 0.845271H41.016C41.0843 0.835042 41.1541 0.840654 41.2199 0.861672C41.2856 0.88269 41.3457 0.918553 41.3955 0.966489C41.4948 1.06315 41.5412 1.20035 41.5202 1.3354C41.5303 1.43889 41.5303 1.54296 41.5202 1.64644C41.4809 1.81269 41.4316 1.97643 41.3727 2.13677L36.4532 17.5151C36.3891 17.8107 36.2394 18.081 36.0229 18.2923C35.7887 18.4412 35.5119 18.5084 35.2355 18.4835H33.4401C33.1502 18.5133 32.8589 18.4415 32.6161 18.2802C32.4061 18.0597 32.2687 17.7802 32.2224 17.4792L29.0375 4.67182L25.8891 17.4671C25.8428 17.7681 25.7054 18.0476 25.4954 18.2681C25.2527 18.4294 24.9614 18.5014 24.6715 18.4716H22.9128H22.913ZM49.1822 18.9978C48.1232 18.9995 47.0672 18.8831 46.0339 18.6509C45.2144 18.4908 44.4202 18.2214 43.6725 17.8499C43.2139 17.6609 42.9177 17.2218 42.9222 16.7375V15.7331C42.9222 15.3185 43.0781 15.1114 43.3897 15.1114C43.5203 15.1133 43.6493 15.1375 43.7709 15.1831L44.2873 15.3864C45.0107 15.6974 45.7653 15.9299 46.5382 16.08C47.3474 16.2417 48.1716 16.3216 48.9977 16.3191C50.0355 16.3795 51.0697 16.1519 51.9862 15.6613C52.6642 15.2696 53.0694 14.5505 53.0439 13.7838C53.0503 13.5272 53.0046 13.272 52.9094 13.0336C52.8143 12.7951 52.6717 12.5785 52.4904 12.3968C51.8657 11.889 51.1341 11.5293 50.3506 11.3445L47.3866 10.4357C46.1385 10.0986 45.0269 9.39738 44.2014 8.42666C43.5421 7.60249 43.1831 6.5889 43.1806 5.54471C43.1639 4.77111 43.3551 4.0072 43.7341 3.33258C44.1043 2.6918 44.6025 2.1341 45.1976 1.69419C45.8275 1.22925 46.5356 0.880942 47.2884 0.665782C48.1249 0.431268 48.99 0.314513 49.8587 0.318888C50.3191 0.318578 50.7791 0.346564 51.2361 0.402688C51.7035 0.45862 52.1462 0.534235 52.5643 0.629923C52.9575 0.718926 53.3472 0.822612 53.7326 0.940764C54.0291 1.03118 54.3171 1.14725 54.5934 1.28766C54.8253 1.40886 55.0303 1.57563 55.1962 1.77799C55.3258 1.97214 55.3904 2.20247 55.3805 2.43572V3.38032C55.3805 3.79484 55.2246 4.00201 54.9132 4.00201C54.6382 3.97235 54.3712 3.8913 54.1261 3.76308C52.8814 3.23813 51.5413 2.97746 50.1906 2.99757C49.2515 2.94964 48.3158 3.14314 47.4727 3.55962C46.8314 3.92405 46.4554 4.60849 46.5012 5.32956C46.4888 5.8614 46.7076 6.37375 47.1038 6.74052C47.7705 7.25791 48.5366 7.6324 49.3543 7.84064L52.2567 8.68975C53.4859 9.0004 54.5883 9.66787 55.4176 10.6031C56.0677 11.4236 56.4066 12.4376 56.3768 13.473C56.3872 14.2749 56.2014 15.0673 55.8356 15.781C55.4745 16.469 54.9664 17.0692 54.3475 17.5389C53.666 18.0497 52.8941 18.427 52.0724 18.6509C51.13 18.9012 50.1571 19.0179 49.1822 18.9978Z" fill="#252F3E"/>
<path d="M55.8789 28.6888C49.1281 34.575 39.329 37.7076 30.9614 37.7076C19.672 37.7953 8.76314 32.8944 0.379416 23.9679C-0.25006 23.2977 0.30536 22.3798 1.07048 22.8898C10.3709 29.1705 20.9011 32.4707 31.6157 32.4625C39.6172 32.4116 47.5315 30.4953 54.9039 26.8237C56.0393 26.2554 57.0021 27.7124 55.8789 28.6888Z" fill="#FF9900"/>
<path d="M57.1045 25.7419C56.2628 24.6482 51.5375 25.2315 49.4214 25.4866C48.7841 25.5597 48.676 25.0006 49.253 24.5874C53.0164 21.9138 59.1966 22.6795 59.906 23.5787C60.6154 24.4781 59.7136 30.7368 56.1907 33.7263C55.6497 34.1882 55.1325 33.9452 55.3732 33.3375C56.1667 31.3201 57.9462 26.8358 57.1045 25.7419Z" fill="#FF9900"/>
</g>
<defs>
<clipPath id="clip0_3615_52800">
<rect width="60" height="37.4178" fill="white" transform="translate(0.105469 0.291016)"/>
</clipPath>
</defs>
</svg>
