<svg xmlns="http://www.w3.org/2000/svg" width="32" height="32" viewBox="0 0 32 32" fill="none">
<rect width="32" height="32" rx="6" fill="#0066FC"/>
<path d="M16.4693 5C16.1249 5 15.8356 5.23974 15.7998 5.55938C15.7943 5.61724 15.786 5.67511 15.7805 5.73297C15.549 8.02004 15.4222 10.3126 15.538 12.6107C15.5958 13.757 15.9927 25.0188 16.045 26.5949C16.0533 26.8236 16.2406 27.0027 16.4666 27C16.6925 27 16.8772 26.8209 16.8854 26.5949C16.946 24.8176 17.3401 13.757 17.3979 12.6107C17.5137 10.3154 17.3869 8.0228 17.1555 5.73297C17.15 5.67511 17.1417 5.61724 17.1362 5.55938C17.1004 5.24249 16.811 5 16.4666 5H16.4693Z" fill="url(#paint0_linear_3487_4498)"/>
<path d="M11.5343 16.7437C11.4764 16.3276 11.4378 15.9253 11.3358 15.5368C11.2752 15.3026 11.0493 15.1345 10.7903 15.1345C10.5312 15.1345 10.3053 15.2998 10.2447 15.5368C10.1427 15.9281 10.1041 16.3304 10.0463 16.7437C9.93055 17.4932 10.06 18.2345 10.1289 18.9757C10.1758 19.5323 10.297 20.8219 10.3659 21.3757C10.3797 21.4749 10.3907 21.5741 10.4045 21.6706C10.4183 21.8717 10.5863 22.0288 10.7903 22.0288C10.9942 22.0288 11.1595 21.869 11.176 21.6706C11.1898 21.5714 11.2008 21.4722 11.2146 21.3757C11.2835 20.8219 11.4047 19.5323 11.4516 18.9757C11.5205 18.2345 11.65 17.4932 11.5343 16.7437Z" fill="url(#paint1_linear_3487_4498)"/>
<path d="M20.1204 9.9049C20.1094 9.80846 20.0901 9.71478 20.0763 9.61834C20.035 9.35932 19.7953 9.16919 19.517 9.16919C19.5114 9.16919 19.5032 9.16919 19.4977 9.16919C19.4921 9.16919 19.4839 9.16919 19.4784 9.16919C19.1973 9.16919 18.9603 9.35932 18.919 9.61834C18.9025 9.71478 18.8832 9.80846 18.8749 9.9049C18.6352 12.2333 18.5884 12.8533 18.6545 15.0715C18.671 15.6005 18.9025 21.7563 19.0761 24.3878C19.0899 24.6 19.2662 24.7626 19.4784 24.7626C19.4866 24.7626 19.4949 24.7626 19.5004 24.7626C19.5087 24.7626 19.517 24.7626 19.5225 24.7626C19.7346 24.7626 19.911 24.6 19.9248 24.3878C20.0984 21.7563 20.3298 15.5978 20.3464 15.0715C20.4097 12.8533 20.3629 12.2361 20.1259 9.9049H20.1204Z" fill="url(#paint2_linear_3487_4498)"/>
<path d="M22.8897 16.7437C22.8318 16.3276 22.7933 15.9253 22.6913 15.5368C22.6307 15.3026 22.4047 15.1345 22.1457 15.1345C21.8867 15.1345 21.6607 15.2998 21.6001 15.5368C21.4981 15.9281 21.4596 16.3304 21.4017 16.7437C21.286 17.4932 21.4155 18.2345 21.4844 18.9757C21.5312 19.5323 21.6525 20.8219 21.7214 21.3757C21.7351 21.4749 21.7462 21.5741 21.7599 21.6706C21.7737 21.8717 21.9418 22.0288 22.1457 22.0288C22.3496 22.0288 22.5149 21.869 22.5315 21.6706C22.5452 21.5714 22.5563 21.4722 22.57 21.3757C22.6417 20.8219 22.7602 19.5323 22.807 18.9757C22.8759 18.2345 23.0054 17.4932 22.8897 16.7437Z" fill="url(#paint3_linear_3487_4498)"/>
<path d="M14.0638 9.9049C14.0528 9.80846 14.0335 9.71478 14.0197 9.61834C13.9784 9.35932 13.7387 9.16919 13.4604 9.16919C13.4549 9.16919 13.4466 9.16919 13.4411 9.16919C13.4356 9.16919 13.4273 9.16919 13.4218 9.16919C13.1407 9.16919 12.9037 9.35932 12.8624 9.61834C12.8459 9.71478 12.8266 9.80846 12.8183 9.9049C12.5786 12.2333 12.5318 12.8533 12.5979 15.0715C12.6144 15.6005 12.8459 21.7563 13.0195 24.3878C13.0333 24.6 13.2096 24.7626 13.4218 24.7626C13.4301 24.7626 13.4383 24.7626 13.4438 24.7626C13.4521 24.7626 13.4604 24.7626 13.4659 24.7626C13.6781 24.7626 13.8544 24.6 13.8682 24.3878C14.0418 21.7563 14.2732 15.5978 14.2898 15.0715C14.3532 12.8533 14.3063 12.2361 14.0693 9.9049H14.0638Z" fill="url(#paint4_linear_3487_4498)"/>
<defs>
<linearGradient id="paint0_linear_3487_4498" x1="16.468" y1="5" x2="16.468" y2="27" gradientUnits="userSpaceOnUse">
<stop stop-color="white"/>
<stop offset="1" stop-color="#C9DFFF"/>
</linearGradient>
<linearGradient id="paint1_linear_3487_4498" x1="10.7903" y1="15.1345" x2="10.7903" y2="22.0288" gradientUnits="userSpaceOnUse">
<stop stop-color="white"/>
<stop offset="1" stop-color="#C9DFFF"/>
</linearGradient>
<linearGradient id="paint2_linear_3487_4498" x1="19.4996" y1="9.16919" x2="19.4996" y2="24.7626" gradientUnits="userSpaceOnUse">
<stop stop-color="white"/>
<stop offset="1" stop-color="#C9DFFF"/>
</linearGradient>
<linearGradient id="paint3_linear_3487_4498" x1="22.1457" y1="15.1345" x2="22.1457" y2="22.0288" gradientUnits="userSpaceOnUse">
<stop stop-color="white"/>
<stop offset="1" stop-color="#C9DFFF"/>
</linearGradient>
<linearGradient id="paint4_linear_3487_4498" x1="13.443" y1="9.16919" x2="13.443" y2="24.7626" gradientUnits="userSpaceOnUse">
<stop stop-color="white"/>
<stop offset="1" stop-color="#C9DFFF"/>
</linearGradient>
</defs>
</svg>