<svg xmlns="http://www.w3.org/2000/svg" class="icon" style="width: 1em;height: 1em;vertical-align: middle;fill: currentColor;overflow: hidden;" viewBox="0 0 1024 1024" version="1.1" p-id="889"><path d="M992.31 205.77c-10.4-5.19-14.84 4.69-20.93 9.76a45.78 45.78 0 0 0-5.58 5.64c-15.16 16.52-32.93 27.42-56.08 26.09-34-2-62.93 8.93-88.49 35.34-5.46-32.55-23.47-52-51-64.48-14.4-6.52-28.93-13-39-27.1-7-10.07-8.94-21.22-12.49-32.24-2.22-6.65-4.44-13.49-12-14.63-8.19-1.27-11.3 5.7-14.53 11.53-12.81 23.81-17.76 50.09-17.32 76.69 1.14 59.86 26 107.48 75.17 141.37 5.65 3.92 7 7.79 5.33 13.49-3.42 11.65-7.36 23-10.91 34.7-2.22 7.41-5.58 9.06-13.45 5.83-27-11.53-50.37-28.56-71-49.15C625 344.1 593.3 306 553.85 276.14q-13.71-10.35-28.17-19.63C485.4 216.6 531 183.86 541.54 180c11-4.06 3.81-18-31.84-17.86s-68.26 12.35-109.81 28.56a129.27 129.27 0 0 1-19 5.7 384.33 384.33 0 0 0-117.93-4.24C185.86 200.9 124.33 238 79 301.41c-54.33 76.25-67.15 162.83-51.41 253.15C44 649.68 91.72 728.47 164.92 790.1c76 63.9 163.48 95.19 263.2 89.17 60.64-3.55 128.14-11.78 204.26-77.46 19.16 9.69 39.39 13.56 72.76 16.47 25.76 2.47 50.56-1.27 69.72-5.32 30.06-6.46 28-34.83 17.12-40-88.11-41.86-68.76-24.83-86.33-38.63 44.78-53.9 112.22-110.08 138.6-291.78 2.16-14.44 0.32-23.56 0-35.22-0.19-7.15 1.46-9.88 9.46-10.7 22-2.6 43.45-8.74 63.18-19.76 57-31.79 80.12-84 85.57-146.55 0.76-9.63-0.19-19.45-10.15-24.52M494.85 769c-85.38-68.4-126.85-90.94-143.93-90-16 1-13.13 19.69-9.58 31.79s8.44 20.27 15.16 30.78c4.63 7 7.87 17.42-4.63 25.21-27.47 17.29-75.3-5.89-77.52-7-55.7-33.44-102.26-77.52-135-137.81-31.65-58.08-50.05-120.34-53.1-186.78-0.82-16.08 3.81-21.78 19.48-24.7a188.48 188.48 0 0 1 62.55-1.64c87.16 13 161.38 52.69 223.61 115.65 35.46 35.84 62.29 78.66 90 120.46 29.37 44.39 61.09 86.7 101.37 121.41 14.27 12.16 25.57 21.41 36.41 28.25-32.67 3.77-87.45 4.6-124.82-25.62m40.92-268.28a12.6 12.6 0 0 1 12.62-12.79 11.37 11.37 0 0 1 4.32 0.76 12.5 12.5 0 0 1 7.61 8.23 11 11 0 0 1 0.57 3.8 12.62 12.62 0 0 1-7.74 11.78 12.86 12.86 0 0 1-4.89 1 12.59 12.59 0 0 1-4.82-1 12 12 0 0 1-5.64-4.68 12.41 12.41 0 0 1-2-7.1m127.12 66.44c-8.12 3.42-16.3 6.33-24.17 6.65-12.11 0.7-25.37-4.37-32.6-10.51-11.15-9.57-19.15-14.95-22.55-31.67-1.4-7.09-0.64-18.11 0.63-24.45 2.92-13.62-0.31-22.36-9.77-30.34-7.67-6.46-17.38-8.23-28.1-8.23-4 0-7.67-1.77-10.4-3.23a12.15 12.15 0 0 1-3.49-2.66 10.23 10.23 0 0 1-2.09-3.8 11.31 11.31 0 0 1-0.45-4.37 10.62 10.62 0 0 1 1.4-4.12c1.08-2.28 6.53-7.79 7.8-8.74 14.59-8.42 31.34-5.7 46.88 0.64 14.4 6 25.25 17 41 32.55 16 18.81 18.78 24 27.91 38.13 7.23 11 13.77 22.42 18.21 35.34 2.79 8.11-0.77 14.76-10.22 18.81" fill="#4D6BFE" p-id="890"/></svg>