<svg width="60" height="60" viewBox="0 0 60 60" fill="none" xmlns="http://www.w3.org/2000/svg">
<path d="M36.8707 20.7635H38.4279L42.8661 16.3253L43.0841 14.4411C40.5416 12.197 37.469 10.6382 34.1566 9.91177C30.8441 9.18536 27.4012 9.31538 24.153 10.2895C20.9047 11.2637 17.9585 13.0498 15.5925 15.4792C13.2265 17.9086 11.5188 20.901 10.6309 24.1739C11.1253 23.9712 11.673 23.9384 12.1881 24.0805L21.0645 22.6165C21.0645 22.6165 21.5161 21.8691 21.7497 21.9159C23.6516 19.8271 26.2799 18.5442 29.0968 18.33C31.9136 18.1158 34.7057 18.9863 36.9017 20.7635H36.8707Z" fill="#F44336"/>
<path d="M49.1881 24.1735C48.168 20.4168 46.0736 17.0395 43.1617 14.4561L36.9325 20.6853C38.2307 21.746 39.2711 23.0876 39.9752 24.609C40.6793 26.1305 41.0287 27.7919 40.9971 29.4681V30.5739C41.7291 30.5676 42.4551 30.7064 43.1331 30.9823C43.8112 31.2581 44.4279 31.6654 44.9477 32.1808C45.4675 32.6962 45.8801 33.3095 46.1617 33.9852C46.4432 34.6609 46.5882 35.3856 46.5882 36.1177C46.5882 36.8497 46.4432 37.5744 46.1617 38.2501C45.8801 38.9258 45.4675 39.5391 44.9477 40.0545C44.4279 40.5699 43.8112 40.9772 43.1331 41.2531C42.4551 41.5289 41.7291 41.6677 40.9971 41.6615H29.9093L28.8037 42.7827V49.4323L29.9093 50.5379H40.9971C44.0933 50.562 47.1151 49.5889 49.6153 47.7625C52.1156 45.9361 53.9616 43.3535 54.8803 40.3966C55.799 37.4397 55.7415 34.2657 54.7164 31.344C53.6913 28.4223 51.7531 25.9081 49.1883 24.1735H49.1881Z" fill="#448AFF"/>
<path d="M18.8058 50.4759H29.8934V41.5995H18.8058C18.0158 41.5993 17.2351 41.4293 16.5166 41.1011L14.9594 41.5839L10.49 46.0219L10.1006 47.5793C12.6069 49.4719 15.6652 50.4895 18.8058 50.4759Z" fill="#43A047"/>
<path d="M18.8058 21.6817C15.8016 21.6997 12.878 22.6555 10.4433 24.4156C8.00866 26.1758 6.18456 28.6524 5.22576 31.4996C4.26697 34.3467 4.22137 37.4223 5.09534 40.2966C5.9693 43.171 7.71919 45.7006 10.1006 47.5321L16.5322 41.1007C15.7148 40.7315 14.9991 40.1695 14.4467 39.4629C13.8942 38.7563 13.5215 37.9262 13.3604 37.0439C13.1993 36.1616 13.2547 35.2533 13.5218 34.3971C13.789 33.5408 14.2598 32.7622 14.8941 32.128C15.5283 31.4938 16.3069 31.0229 17.1631 30.7558C18.0194 30.4886 18.9276 30.4333 19.81 30.5943C20.6923 30.7554 21.5224 31.1282 22.229 31.6806C22.9356 32.2331 23.4976 32.9487 23.8668 33.7661L30.2984 27.3345C28.9485 25.5698 27.2086 24.1412 25.2149 23.1606C23.2212 22.1799 21.0276 21.6738 18.8058 21.6817Z" fill="#FFC107"/>
</svg>
