<svg width="70" height="34" viewBox="0 0 70 34" fill="none" xmlns="http://www.w3.org/2000/svg"> <path d="M44.5 19L44.9799 18.8596L44.5 19ZM69.1362 16.4811C69.4019 16.4059 69.5563 16.1295 69.4811 15.8638L68.2557 11.5339C68.1805 11.2682 67.9041 11.1138 67.6384 11.189C67.3727 11.2642 67.2182 11.5405 67.2934 11.8062L68.3827 15.6551L64.5339 16.7443C64.2682 16.8195 64.1138 17.0959 64.189 17.3616C64.2642 17.6273 64.5405 17.7818 64.8062 17.7066L69.1362 16.4811ZM-1.15145e-06 1.5C0.322672 1.5 0.649085 1.5007 0.978988 1.50221L0.983565 0.502217C0.65205 0.500699 0.324109 0.500001 1.15145e-06 0.5L-1.15145e-06 1.5ZM2.95169 1.52128C3.59647 1.53097 4.25184 1.54437 4.9161 1.56228L4.94305 0.562641C4.27451 0.544622 3.61516 0.531142 2.96671 0.521397L2.95169 1.52128ZM6.88099 1.62815C7.52973 1.65432 8.18504 1.6853 8.84546 1.72176L8.90059 0.72328C8.23495 0.686528 7.57469 0.655323 6.9213 0.628964L6.88099 1.62815ZM10.808 1.84597C11.458 1.89254 12.1116 1.94494 12.7671 2.00378L12.8565 1.00779C12.1947 0.948378 11.5352 0.895506 10.8794 0.848526L10.808 1.84597ZM14.7204 2.19828C15.3697 2.26952 16.0196 2.34763 16.6689 2.43322L16.7996 1.44179C16.1427 1.35521 15.4856 1.27624 14.8295 1.20425L14.7204 2.19828ZM18.6106 2.71252C19.2572 2.8136 19.9019 2.92275 20.5434 3.04055L20.724 2.05699C20.0734 1.93752 19.42 1.8269 18.765 1.72452L18.6106 2.71252ZM22.4645 3.42218C23.105 3.55944 23.7408 3.70614 24.3706 3.86288L24.6122 2.89249C23.9712 2.73297 23.3247 2.58381 22.674 2.44438L22.4645 3.42218ZM26.2589 4.36915C26.8892 4.55085 27.5117 4.74367 28.125 4.94825L28.4414 3.99964C27.8144 3.79047 27.1788 3.59359 26.5359 3.40828L26.2589 4.36915ZM29.9608 5.60755C30.5717 5.84349 31.1713 6.09255 31.7579 6.35541L32.1668 5.44283C31.5633 5.1724 30.9475 4.91663 30.3211 4.67471L29.9608 5.60755ZM33.5058 7.2007C34.0851 7.50301 34.6488 7.82082 35.1953 8.15489L35.7169 7.30169C35.1501 6.95522 34.5667 6.62633 33.9684 6.31414L33.5058 7.2007ZM36.8075 9.22552C37.3333 9.60513 37.839 10.0028 38.3226 10.4193L38.9752 9.66162C38.4689 9.22555 37.9407 8.81025 37.3928 8.41471L36.8075 9.22552ZM39.7209 11.742C40.1654 12.205 40.5855 12.6885 40.9793 13.1933L41.7677 12.5781C41.3522 12.0455 40.9096 11.5363 40.4422 11.0495L39.7209 11.742ZM42.0765 14.7668C42.4104 15.3057 42.7173 15.8664 42.9954 16.4499L43.8981 16.0196C43.604 15.4027 43.2795 14.8099 42.9266 14.2401L42.0765 14.7668ZM43.7248 18.2209C43.8302 18.5218 43.9288 18.8283 44.0201 19.1404L44.9799 18.8596C44.8836 18.5308 44.7798 18.2076 44.6685 17.8901L43.7248 18.2209ZM44.0201 19.1404C44.1189 19.478 44.207 19.8081 44.2849 20.1308L45.257 19.8964C45.1753 19.5575 45.083 19.2119 44.9799 18.8596L44.0201 19.1404ZM44.6451 22.0854C44.7306 22.7781 44.7629 23.4301 44.7476 24.0429L45.7473 24.0679C45.7639 23.4022 45.7286 22.7008 45.6376 21.9629L44.6451 22.0854ZM44.5171 25.9893C44.3699 26.6502 44.1567 27.253 43.8876 27.8009L44.7851 28.2418C45.0905 27.6203 45.3294 26.9422 45.4932 26.2067L44.5171 25.9893ZM42.8253 29.3957C42.4024 29.8782 41.9196 30.301 41.3872 30.6661L41.9528 31.4908C42.5498 31.0813 43.0962 30.6037 43.5773 30.0549L42.8253 29.3957ZM39.6764 31.5804C39.0828 31.8228 38.4538 32.0136 37.7992 32.1544L38.0094 33.1321C38.7166 32.98 39.4022 32.7725 40.0543 32.5063L39.6764 31.5804ZM35.844 32.4229C35.1913 32.4655 34.5261 32.4648 33.8576 32.4223L33.7942 33.4203C34.5037 33.4654 35.2118 33.4663 35.9092 33.4208L35.844 32.4229ZM31.8821 32.1773C31.2282 32.0566 30.5805 31.8974 29.9477 31.7016L29.6522 32.657C30.3227 32.8644 31.0084 33.0329 31.7006 33.1606L31.8821 32.1773ZM28.0885 31.0003C27.4764 30.7246 26.8902 30.4125 26.3391 30.0665L25.8073 30.9134C26.3994 31.2851 27.0263 31.6186 27.6778 31.912L28.0885 31.0003ZM24.7592 28.8933C24.2602 28.4539 23.8122 27.9798 23.4249 27.4739L22.6309 28.0818C23.061 28.6437 23.5546 29.165 24.0984 29.6438L24.7592 28.8933ZM22.4345 25.818C22.177 25.2381 21.9922 24.6266 21.8909 23.9854L20.9032 24.1414C21.0186 24.8719 21.229 25.5672 21.5206 26.2239L22.4345 25.818ZM21.8383 22.0684C21.8689 21.7539 21.9187 21.4326 21.9889 21.105L21.0111 20.8955C20.9331 21.2594 20.8774 21.6182 20.843 21.9716L21.8383 22.0684ZM21.9889 21.105C22.0585 20.7801 22.1418 20.4632 22.2384 20.1541L21.2838 19.856C21.1781 20.1945 21.0871 20.541 21.0111 20.8955L21.9889 21.105ZM22.9927 18.3531C23.3002 17.7779 23.6608 17.2335 24.0707 16.7196L23.2889 16.096C22.8424 16.6558 22.448 17.2509 22.1108 17.8816L22.9927 18.3531ZM25.4195 15.2913C25.8996 14.8578 26.4217 14.4513 26.9825 14.0717L26.422 13.2436C25.8253 13.6474 25.2663 14.0823 24.7494 14.5491L25.4195 15.2913ZM28.6926 13.058C29.272 12.7571 29.881 12.4791 30.517 12.2239L30.1446 11.2958C29.4805 11.5623 28.8419 11.8537 28.2318 12.1705L28.6926 13.058ZM32.4089 11.5554C33.0378 11.3609 33.6868 11.1856 34.3538 11.0295L34.1259 10.0558C33.4374 10.217 32.7658 10.3982 32.1134 10.6L32.4089 11.5554ZM36.3364 10.6303C36.9922 10.5186 37.6617 10.4236 38.343 10.3452L38.2287 9.35179C37.5302 9.43214 36.8428 9.52965 36.1684 9.64456L36.3364 10.6303ZM40.3589 10.1639C41.0257 10.12 41.7015 10.0909 42.3846 10.0766L42.3637 9.07685C41.6661 9.09145 40.9754 9.12111 40.2932 9.16601L40.3589 10.1639ZM44.4147 10.0769C45.0865 10.0909 45.7637 10.1185 46.4447 10.1595L46.5048 9.16134C45.811 9.11952 45.1207 9.09141 44.4355 9.07716L44.4147 10.0769ZM48.471 10.3203C49.1423 10.3863 49.816 10.465 50.4905 10.5563L50.6246 9.56532C49.9381 9.4724 49.2524 9.39228 48.5687 9.32512L48.471 10.3203ZM52.5003 10.8653C53.1671 10.9801 53.8333 11.107 54.4978 11.246L54.7025 10.2671C54.0264 10.1257 53.3484 9.99657 52.67 9.87977L52.5003 10.8653ZM56.4801 11.6978C57.1384 11.8603 57.7936 12.0347 58.4443 12.2208L58.7192 11.2593C58.0567 11.0698 57.3898 10.8923 56.7198 10.7269L56.4801 11.6978ZM60.3877 12.8158C61.0336 13.027 61.6736 13.2499 62.3065 13.4844L62.6539 12.5467C62.0087 12.3076 61.3564 12.0805 60.6984 11.8654L60.3877 12.8158ZM64.1964 14.2285C64.8243 14.4908 65.4434 14.765 66.0523 15.0508L66.4772 14.1456C65.855 13.8535 65.2227 13.5735 64.5818 13.3058L64.1964 14.2285ZM67.8681 15.9545C68.1672 16.1122 68.4633 16.2728 68.7561 16.4365L69.2439 15.5635C68.9439 15.3959 68.6407 15.2313 68.3345 15.0699L67.8681 15.9545Z" fill="white"/> </svg>