<svg width="99" height="18" viewBox="0 0 99 18" fill="none" xmlns="http://www.w3.org/2000/svg">
<path d="M30.8032 11.6363C31.3237 11.6363 31.7455 11.4911 32.0715 11.2008C32.3975 10.9104 32.5592 10.5405 32.5592 10.0913C32.5592 9.78444 32.4825 9.51049 32.329 9.26668C32.1756 9.02561 31.9647 8.83111 31.699 8.6914C31.4332 8.54895 31.1292 8.47772 30.7867 8.47772H27.0282V11.6336H30.8032V11.6363ZM30.5183 6.52996C31.0141 6.52996 31.4195 6.38751 31.7318 6.10535C32.0441 5.82044 32.203 5.46157 32.203 5.02325C32.203 4.56302 32.0524 4.18498 31.751 3.88912C31.4497 3.59326 31.0442 3.44532 30.5374 3.44532H27.0254V6.52996H30.5183ZM24.79 1.33594H30.6224C31.4031 1.33594 32.0852 1.47839 32.6715 1.76055C33.2577 2.04546 33.707 2.43446 34.0193 2.93031C34.3316 3.42615 34.4905 3.98774 34.4905 4.61508C34.4905 5.18215 34.3508 5.70813 34.0741 6.19301C33.7947 6.6779 33.4139 7.05594 32.9317 7.32714C33.5947 7.61205 34.0933 8.02845 34.4302 8.57634C34.7672 9.12697 34.9343 9.73788 34.9343 10.4118C34.9343 11.0501 34.7726 11.6199 34.4467 12.1239C34.1207 12.628 33.6632 13.0225 33.0714 13.3129C32.4797 13.6033 31.7757 13.7484 30.9621 13.7484H24.79V1.33594Z" fill="#1D2129"/>
<path d="M40.1288 13.2851L35.9429 4.34898H38.0714L41.2109 11.0333L44.0298 4.34898H47.0076V2.52176L49.1005 1.8999V4.34624H51.4592V6.33235H49.1005V10.8716C49.1005 11.2031 49.1854 11.4552 49.358 11.625C49.5279 11.7976 49.7799 11.9099 50.1114 11.962C50.4429 12.014 50.8921 12.025 51.4592 11.9893V13.8686C50.3826 13.9864 49.5224 13.959 48.8786 13.7892C48.2348 13.6193 47.7609 13.2933 47.4596 12.8139C47.1582 12.3345 47.0076 11.688 47.0076 10.8716V6.33235H45.3228L40.3233 17.9997H38.1235L40.1288 13.2851Z" fill="#1D2129"/>
<path d="M59.9708 8.14306C59.8749 7.74036 59.705 7.38697 59.4558 7.08015C59.2065 6.77333 58.8996 6.535 58.5326 6.37063C58.1655 6.20626 57.7765 6.12134 57.3628 6.12134C56.9738 6.12134 56.5875 6.20352 56.2095 6.37063C55.8314 6.535 55.5027 6.77333 55.226 7.08015C54.9493 7.38697 54.774 7.7431 54.7028 8.14306H59.9708ZM57.3299 13.9946C56.4423 13.9946 55.6342 13.7754 54.9 13.3371C54.1658 12.8988 53.5878 12.2988 53.1632 11.5373C52.7386 10.7757 52.5249 9.92645 52.5249 8.99229C52.5249 8.08279 52.7413 7.25547 53.1714 6.51033C53.6015 5.7652 54.1878 5.17895 54.9274 4.74612C55.6671 4.31328 56.478 4.09961 57.3655 4.09961C58.4778 4.09961 59.3982 4.34616 60.1324 4.83653C60.8638 5.32689 61.3871 6.01176 61.7021 6.89387C62.0144 7.77323 62.1075 8.79505 61.9761 9.9511L54.6699 9.97028C54.7767 10.3949 54.9767 10.762 55.2726 11.0688C55.5684 11.3756 55.9027 11.603 56.2752 11.7509C56.6478 11.8989 56.9984 11.9728 57.3299 11.9728C57.697 11.9728 58.0394 11.9372 58.3572 11.866C58.675 11.7948 58.9599 11.6797 59.2092 11.5208C59.4585 11.3619 59.6831 11.1756 59.8831 10.962L59.9708 10.8551L61.6364 11.9537C61.2227 12.6385 60.6502 13.1508 59.916 13.4878C59.1845 13.8274 58.3216 13.9946 57.3299 13.9946Z" fill="#1D2129"/>
<path d="M68.8898 7.15182C69.35 7.15182 69.7445 7.08059 70.0677 6.93814C70.3937 6.79568 70.6403 6.58475 70.8129 6.29985C70.9827 6.01768 71.0704 5.66703 71.0704 5.25337C71.0704 4.62603 70.8841 4.16033 70.5115 3.85351C70.139 3.54669 69.5993 3.39328 68.8898 3.39328H65.9092V7.15182H68.8898ZM63.6766 1.33594H68.8542C70.2842 1.33594 71.3936 1.68385 72.1799 2.38241C72.9661 3.08098 73.3578 4.03705 73.3578 5.25611C73.3578 6.04782 73.1825 6.74364 72.8346 7.3381C72.4867 7.93531 71.9771 8.3928 71.3087 8.71331C70.6403 9.03109 69.8267 9.19272 68.8706 9.19272H65.9092V13.7512H63.6738V1.33594H63.6766Z" fill="#1D2129"/>
<path d="M77.4361 1.10547H75.272V13.7481H77.4361V1.10547Z" fill="#1D2129"/>
<path d="M83.3058 13.9948C82.6319 13.9948 82.0264 13.8359 81.4868 13.5154C80.9498 13.1948 80.5307 12.7565 80.2293 12.1949C79.928 11.6334 79.7773 11.0033 79.7773 10.3075V4.34912H81.9223V9.56232C81.9223 10.0362 82.0018 10.4472 82.1607 10.7951C82.3196 11.143 82.5524 11.4142 82.862 11.6114C83.1688 11.8059 83.5359 11.9046 83.9605 11.9046C84.3632 11.9046 84.7275 11.8032 85.059 11.6032C85.3905 11.4032 85.6535 11.1129 85.848 10.7348C86.0425 10.3568 86.1411 9.91845 86.1411 9.42261V4.35186H88.3053V13.7482H86.2123V12.5593C85.9055 13.0332 85.5001 13.3893 84.9988 13.6332C84.4974 13.8742 83.9331 13.9948 83.3058 13.9948Z" fill="#1D2129"/>
<path d="M94.1906 13.995C93.4811 13.995 92.7606 13.8416 92.0264 13.5347C91.2923 13.2279 90.6841 12.7841 90.1992 12.2061L91.5826 11.0363C91.9251 11.3432 92.2757 11.5897 92.6291 11.7733C92.9853 11.9568 93.44 12.0664 93.9934 12.102C94.5714 12.1376 95.0563 12.0691 95.448 11.8993C95.837 11.7294 96.0452 11.4719 96.0699 11.1267C96.0808 10.8912 96.0178 10.7049 95.8754 10.5679C95.7329 10.4337 95.511 10.3186 95.2097 10.2309C94.9084 10.1433 94.4372 10.0447 93.7989 9.93782L93.3551 9.85016C92.4209 9.69675 91.7004 9.40637 91.1909 8.98175C90.6814 8.55713 90.4293 7.95445 90.4293 7.1737C90.4293 6.53541 90.5992 5.98478 90.9443 5.52455C91.2868 5.06432 91.7415 4.71914 92.3086 4.48629C92.8757 4.25617 93.5085 4.14111 94.2071 4.14111C94.9275 4.14111 95.6261 4.26987 96.3 4.53012C96.9739 4.79037 97.5245 5.20951 97.9492 5.79028L96.5849 6.94359C96.3356 6.62307 96.0069 6.38474 95.5932 6.22585C95.1796 6.06696 94.7303 5.98752 94.2454 5.98752C93.9276 5.98752 93.6235 6.02313 93.3414 6.09435C93.0565 6.16558 92.8209 6.28064 92.6319 6.43953C92.4428 6.59842 92.3469 6.80387 92.3469 7.05042C92.3469 7.2641 92.41 7.43121 92.5332 7.55448C92.6565 7.67776 92.8784 7.7846 93.1989 7.875C93.5195 7.96267 94.0564 8.07773 94.8125 8.22018H94.8481C95.7822 8.39824 96.5493 8.71602 97.152 9.17625C97.7547 9.63648 98.056 10.2583 98.056 11.0391C98.056 11.6418 97.8725 12.1677 97.5054 12.617C97.1383 13.0663 96.6561 13.4087 96.0589 13.6443C95.4645 13.8772 94.8426 13.995 94.1906 13.995Z" fill="#1D2129"/>
<path d="M12.0661 6.38194C11.9483 6.48056 11.7675 6.39838 11.7675 6.24223V5.38752V0.182541C11.7675 0.0263917 11.5867 -0.0557949 11.4689 0.0428258L4.24215 6.18197C4.12436 6.28059 3.94355 6.1984 3.94355 6.04225V1.84539C3.94355 1.72485 3.84767 1.62898 3.72713 1.62898H0.217881C0.0973443 1.62898 0.00146484 1.72759 0.00146484 1.84539V14.9893C0.00146484 15.1455 0.182268 15.2277 0.300065 15.1291L7.52677 8.98992C7.64457 8.88856 7.82537 8.97348 7.82537 9.12689V15.1866C7.82537 15.34 8.00618 15.4249 8.12397 15.3236L15.3507 9.18442C15.4685 9.0858 15.6493 9.16798 15.6493 9.32413V13.521C15.6493 13.6415 15.7479 13.7374 15.8657 13.7374H19.375C19.4955 13.7374 19.5914 13.6388 19.5914 13.521V0.377041C19.5914 0.223631 19.4106 0.138705 19.2928 0.237325L12.0661 6.38194Z" fill="#0066FC"/>
</svg>
