<svg width="60" height="62" viewBox="0 0 60 62" fill="none" xmlns="http://www.w3.org/2000/svg">
<path d="M56.2572 25.0184C57.021 22.9163 57.2135 20.8141 57.021 18.715C56.8316 16.6128 56.0677 14.5137 55.1114 12.6041C53.3942 9.73804 50.9101 7.44644 48.0471 6.1112C44.9916 4.77291 41.7437 4.39097 38.4988 5.15484C36.9711 3.62711 35.2508 2.29187 33.3412 1.33551C31.4315 0.385258 29.1399 0.000269323 27.0408 0.000269323C23.7619 -0.0188724 20.5583 0.982776 17.8744 2.8663C15.2008 4.77291 13.2912 7.4495 12.3348 10.505C10.0432 11.0763 8.13356 12.0327 6.22389 13.1785C4.50672 14.5137 3.16842 16.234 2.02262 17.9511C0.30545 20.8172 -0.268979 24.0621 0.112955 27.31C0.496707 30.5486 1.82499 33.6025 3.93229 36.0914C3.21002 38.1091 2.94901 40.263 3.16842 42.3949C3.36092 44.497 4.12478 46.5961 5.07809 48.5058C6.79832 51.3718 9.27936 53.6634 12.1454 54.9987C15.2008 56.337 18.4458 56.7189 21.6937 55.955C23.2214 57.4828 24.9386 58.818 26.8483 59.7744C28.758 60.7277 31.0496 61.1096 33.1517 61.1096C36.4306 61.1287 39.6342 60.1271 42.3181 58.2436C44.9916 56.3339 46.9013 53.6604 47.8546 50.6049C50.0122 50.1947 52.0416 49.2784 53.7761 47.9314C55.4933 46.5961 57.021 45.0684 57.9774 43.1587C59.6946 40.2927 60.269 37.0478 59.8871 33.7998C59.5051 30.5549 58.3593 27.4995 56.2572 25.0184ZM33.3412 57.1008C30.2857 57.1008 27.9941 56.1445 25.895 54.4273C25.895 54.4273 26.0844 54.2348 26.2769 54.2348L38.4988 47.1675C38.8399 47.0173 39.1125 46.7448 39.2626 46.4036C39.4521 46.0217 39.4521 45.8323 39.4521 45.4503V28.2633L44.6097 31.3188V45.4503C44.6623 46.9623 44.4096 48.4693 43.8667 49.8815C43.3239 51.2936 42.5021 52.5818 41.4503 53.6693C40.3985 54.7567 39.1383 55.621 37.7451 56.2106C36.3518 56.8002 34.854 57.103 33.3412 57.1008ZM8.70798 46.5961C7.36969 44.3045 6.79832 41.631 7.36969 38.9575C7.36969 38.9575 7.56218 39.15 7.75162 39.15L19.9735 46.2142C20.267 46.3693 20.5992 46.4362 20.9298 46.4067C21.3118 46.4067 21.6937 46.4067 21.8832 46.2142L36.7786 37.6192V43.5407L24.3673 50.7974C21.7673 52.3033 18.6759 52.7154 15.7722 51.9432C12.7168 51.1793 10.2357 49.2697 8.70798 46.5961ZM5.46002 20.0502C6.81089 17.7699 8.90001 16.0193 11.3815 15.0882V29.6016C11.3815 29.9805 11.3815 30.3655 11.571 30.5549C11.7211 30.8961 11.9937 31.1686 12.3348 31.3188L27.2302 39.9138L22.0756 42.9693L9.85378 35.902C8.55191 35.1669 7.40891 34.1808 6.49104 33.0007C5.57317 31.8205 4.8987 30.4699 4.50672 29.0272C3.74285 26.1612 3.93229 22.7238 5.46002 20.0502ZM47.6652 29.7911L32.7698 21.196L37.9244 18.1406L50.1462 25.2079C52.0559 26.3537 53.5836 27.8814 54.54 29.7911C55.4933 31.7007 56.0677 33.8029 55.8752 36.0945C55.6891 38.245 54.8942 40.2979 53.5836 42.0129C52.2484 43.7332 50.5282 45.0684 48.4291 45.8323V31.3188C48.4291 30.9369 48.4291 30.5549 48.2366 30.3624C48.2366 30.3624 48.0471 29.9836 47.6652 29.7911ZM52.8198 22.1524C52.8198 22.1524 52.6303 21.9599 52.4378 21.9599L40.216 14.8957C39.834 14.7032 39.6446 14.7032 39.2626 14.7032C38.8807 14.7032 38.4988 14.7032 38.3063 14.8957L23.4109 23.4907V17.5692L35.8252 10.3125C37.7349 9.16667 39.834 8.78474 42.1256 8.78474C44.2278 8.78474 46.3269 9.5486 48.2366 10.8869C49.9568 12.2221 51.4845 13.9424 52.2484 15.852C53.0122 17.7617 53.2017 20.0533 52.8198 22.1524ZM20.7374 32.8465L15.5828 29.7911V15.467C15.5828 13.3679 16.1542 11.0763 17.3 9.35611C18.4458 7.4495 20.166 6.1112 22.0756 5.1579C24.0218 4.18095 26.2279 3.84714 28.376 4.20459C30.4782 4.39709 32.5773 5.35039 34.2975 6.68869C34.2975 6.68869 34.105 6.87813 33.9156 6.87813L21.6937 13.9454C21.3526 14.0956 21.08 14.3681 20.9298 14.7093C20.7374 15.0912 20.7374 15.2807 20.7374 15.6626V32.8496V32.8465ZM23.4109 26.7356L30.0963 22.9163L36.7786 26.7356V34.3743L30.0963 38.1936L23.4109 34.3743V26.7356Z" fill="black"/>
</svg>
