<svg width="24" height="24" viewBox="-2 0 22 16" fill="none" xmlns="http://www.w3.org/2000/svg">
<path d="M12.0661 6.38194C11.9483 6.48056 11.7675 6.39838 11.7675 6.24223V5.38752V0.182541C11.7675 0.0263917 11.5867 -0.0557949 11.4689 0.0428258L4.24215 6.18197C4.12436 6.28059 3.94355 6.1984 3.94355 6.04225V1.84539C3.94355 1.72485 3.84767 1.62898 3.72713 1.62898H0.217881C0.0973443 1.62898 0.00146484 1.72759 0.00146484 1.84539V14.9893C0.00146484 15.1455 0.182268 15.2277 0.300065 15.1291L7.52677 8.98992C7.64457 8.88856 7.82537 8.97348 7.82537 9.12689V15.1866C7.82537 15.34 8.00618 15.4249 8.12397 15.3236L15.3507 9.18442C15.4685 9.0858 15.6493 9.16798 15.6493 9.32413V13.521C15.6493 13.6415 15.7479 13.7374 15.8657 13.7374H19.375C19.4955 13.7374 19.5914 13.6388 19.5914 13.521V0.377041C19.5914 0.223631 19.4106 0.138705 19.2928 0.237325L12.0661 6.38194Z" fill="#0066FC"/>
</svg>
